ply
format ascii 1.0
comment Exported by RapidForm
element vertex 261
property float x
property float y
property float z
element face 420
property list uchar int vertex_index
end_header
-0.260938 2.288281 0.996094
-0.264844 2.278125 0.769531
-0.410156 2.278906 0.771875
-0.406250 2.289062 0.998438
-0.488281 2.267969 0.406250
-0.485938 2.275000 0.561719
-0.313281 2.251563 0.560156
-0.316406 2.244531 0.403906
-0.273438 2.207031 0.560938
-0.276563 2.200781 0.405469
-0.284375 2.140625 0.407813
-0.282031 2.147656 0.564063
-0.332813 2.121875 0.565625
-0.335938 2.114844 0.410156
-0.550000 2.145313 0.568750
-0.553125 2.138281 0.413281
0.057813 2.168750 0.864844
0.057813 2.203906 0.847656
0.057813 2.241406 0.861719
0.058594 2.257812 0.896875
0.059375 2.244531 0.934375
0.058594 2.171875 0.937500
0.057813 2.154688 0.901563
0.059375 2.208594 0.950781
-0.389844 2.156250 0.723437
-0.394531 2.221875 0.720313
-0.381250 2.215625 0.720313
-0.339844 2.243750 0.718750
-0.340625 2.259375 0.717969
-0.293750 2.222656 0.718750
-0.281250 2.231250 0.717969
-0.289844 2.172656 0.721094
-0.275781 2.165625 0.721094
-0.331250 2.143750 0.722656
-0.330469 2.128906 0.723437
-0.377344 2.164844 0.722656
-0.675781 2.278906 -0.075781
-0.709375 2.189844 -0.369531
-0.717188 2.124219 -0.340625
-0.680469 2.229687 -0.073438
-0.709375 2.067188 -0.313281
-0.388281 2.159375 0.781250
-0.393750 2.224219 0.778906
-0.339844 2.261719 0.775781
-0.280469 2.233594 0.776563
-0.275000 2.168750 0.778906
-0.328906 2.131250 0.781250
-0.261719 2.138281 1.003125
-0.350000 2.139063 1.003906
-0.353906 2.128906 0.778125
-0.265625 2.128125 0.776562
-0.344531 2.113281 0.757031
-0.339844 2.123438 1.043750
-0.905469 2.129688 1.053125
-0.910937 2.117188 0.766406
-0.568750 2.347656 -0.021094
-0.567969 2.350000 0.029687
-0.568750 2.173438 0.037500
-0.569531 2.171094 -0.013281
-0.618750 2.123438 -0.342187
-0.630469 2.189844 -0.371094
-0.652344 2.278906 -0.075781
-0.649219 2.229687 -0.074219
-0.630469 2.066406 -0.314063
-0.669531 2.058594 -0.304688
-0.670313 2.200781 -0.378906
-0.850781 2.404688 0.032031
-0.472656 2.401562 0.025781
-0.489844 2.246875 0.032813
-0.835938 2.249219 0.038281
-0.753906 2.099219 0.043750
-0.573438 2.097656 0.040625
-0.560156 2.130469 0.781250
-0.741406 2.132031 0.784375
-0.921094 2.400781 0.782813
-0.932813 2.370312 0.095312
-0.850781 2.348438 0.095312
-0.839063 2.376563 0.782813
-0.389062 2.364063 0.086719
-0.377344 2.396875 0.773438
-0.455469 2.376563 0.775781
-0.467187 2.346094 0.088281
-0.825781 2.460938 0.642188
-0.832812 2.442188 0.226562
-0.902344 2.448437 0.163281
-0.892969 2.469531 0.699219
-0.483594 2.439844 0.220313
-0.476562 2.458594 0.636719
-0.402344 2.466406 0.690625
-0.411719 2.444531 0.154688
-0.789062 2.501563 0.223438
-0.781250 2.520313 0.639063
-0.727344 2.540625 0.220313
-0.720313 2.559375 0.636719
-0.657813 2.555469 0.218750
-0.650000 2.573437 0.634375
-0.583594 2.539844 0.217969
-0.576563 2.558594 0.633594
-0.522656 2.500000 0.218750
-0.515625 2.517969 0.634375
-0.439844 2.407031 1.032812
-0.845313 2.412500 1.039844
-0.664844 2.225000 -0.073438
-0.664062 2.283594 -0.075781
-0.445312 2.396875 0.746094
-0.850000 2.399219 0.753125
-0.837500 2.437500 0.772656
-0.460156 2.434375 0.766406
-0.740625 2.481250 1.605469
-0.741406 2.392188 1.609375
-0.717969 2.353906 1.610937
-0.752344 2.436719 1.607813
-0.634375 2.554688 1.600781
-0.677344 2.546094 1.601562
-0.717188 2.519531 1.603906
-0.586719 2.545313 1.600000
-0.588281 2.326563 1.610156
-0.678906 2.326563 1.611719
-0.635156 2.317969 1.610937
-0.552344 2.353125 1.608594
-0.525000 2.390625 1.606250
-0.524219 2.479687 1.602344
-0.551562 2.517969 1.600781
-0.516406 2.435156 1.603906
-0.401563 2.469531 0.771094
-0.450781 2.439844 0.773437
-0.458594 2.554688 0.767969
-0.544531 2.610938 0.767188
-0.647656 2.630469 0.767969
-0.846875 2.442188 0.780469
-0.746875 2.612500 0.770312
-0.833594 2.557031 0.774219
-0.892188 2.472656 0.778906
-0.757031 2.349219 -0.017969
-0.758594 2.172656 -0.010156
-0.757812 2.175000 0.040625
-0.756250 2.351562 0.032813
-0.628906 2.289844 -0.076563
-0.628906 2.225000 -0.074219
-0.700000 2.225781 -0.072656
-0.700000 2.290625 -0.075781
-0.604688 2.205469 -0.014063
-0.722656 2.206250 -0.011719
-0.721875 2.315625 -0.017188
-0.603906 2.314844 -0.018750
-0.858594 2.411719 0.092188
-0.903906 2.445312 0.091406
-0.845313 2.528906 0.086719
-0.758594 2.584375 0.082813
-0.659375 2.602344 0.080469
-0.462500 2.409375 0.085938
-0.556250 2.582813 0.079687
-0.470313 2.526562 0.080469
-0.413281 2.441406 0.083594
-0.476562 2.279688 0.773438
-0.263281 2.157031 0.907031
-0.264062 2.170313 0.870313
-0.264062 2.206250 0.853125
-0.263281 2.243750 0.867188
-0.262500 2.260156 0.902344
-0.261719 2.246875 0.939844
-0.261719 2.210938 0.956250
-0.262500 2.174219 0.942969
-0.503125 2.217969 0.564063
-0.478125 2.173438 0.565625
-0.474219 2.182031 0.754687
-0.500000 2.226562 0.753125
-0.477344 2.262500 0.561719
-0.473438 2.270313 0.750781
-0.425781 2.261719 0.560938
-0.422656 2.270313 0.750000
-0.400781 2.217188 0.562500
-0.397656 2.225781 0.750781
-0.426563 2.173438 0.564844
-0.423438 2.182031 0.753906
-0.822656 2.282031 0.778906
-0.835156 2.553125 0.694531
-0.748438 2.608594 0.690625
-0.649219 2.627344 0.687500
-0.546094 2.607813 0.686719
-0.460156 2.550781 0.687500
-0.383594 2.208594 0.561719
-0.379688 2.157813 0.564063
-0.342187 2.236719 0.559375
-0.296875 2.215625 0.560156
-0.292188 2.165625 0.561719
-0.334375 2.136719 0.564063
-0.844531 2.532031 0.158594
-0.757031 2.587500 0.154688
-0.658594 2.605469 0.151562
-0.555469 2.585938 0.150781
-0.468750 2.529688 0.152344
-0.460156 2.475000 0.742969
-0.455469 2.487500 1.029688
-0.503125 2.539844 0.740625
-0.498437 2.553125 1.027344
-0.569531 2.585156 0.739844
-0.564844 2.597656 1.026563
-0.648438 2.601562 0.740625
-0.642969 2.614063 1.027344
-0.721875 2.599219 1.028906
-0.727344 2.586719 0.742188
-0.785156 2.554688 1.032031
-0.789844 2.542187 0.745313
-0.828906 2.490625 1.035938
-0.833594 2.477344 0.749219
-0.643750 2.267188 1.135938
-0.646094 2.210156 1.045313
-0.567187 2.225000 1.042969
-0.589063 2.278125 1.135156
-0.500000 2.267188 1.039844
-0.541406 2.311719 1.132812
-0.456250 2.333594 1.036719
-0.509375 2.358594 1.129688
-0.497656 2.414062 1.127344
-0.508594 2.470313 1.125000
-0.539844 2.517188 1.123438
-0.586719 2.550781 1.122656
-0.642188 2.562500 1.123438
-0.696875 2.551563 1.125000
-0.744531 2.518750 1.126562
-0.776563 2.471875 1.129688
-0.788281 2.415625 1.132031
-0.777344 2.360156 1.134375
-0.829688 2.335938 1.042969
-0.746094 2.313281 1.135938
-0.786719 2.268750 1.045313
-0.698438 2.278906 1.136719
-0.724219 2.225781 1.046094
-0.641406 2.273438 1.264063
-0.696875 2.284375 1.264063
-0.743750 2.318750 1.263281
-0.775000 2.365625 1.261719
-0.785937 2.421875 1.260156
-0.774219 2.477344 1.257031
-0.742188 2.524219 1.254688
-0.695312 2.557031 1.252344
-0.639844 2.567969 1.250781
-0.585156 2.556250 1.250000
-0.537500 2.522656 1.250781
-0.507031 2.475781 1.252344
-0.495313 2.419531 1.254688
-0.507031 2.364063 1.257812
-0.539062 2.317188 1.260156
-0.586719 2.283594 1.262500
-0.641406 2.226562 1.317188
-0.714063 2.242188 1.317969
-0.778906 2.286719 1.316406
-0.821875 2.348438 1.314844
-0.834375 2.424219 1.311719
-0.820312 2.497656 1.307813
-0.777344 2.560938 1.304688
-0.712500 2.604687 1.301563
-0.639063 2.618750 1.300000
-0.560938 2.603906 1.299219
-0.500781 2.559375 1.300000
-0.458594 2.495312 1.302344
-0.446094 2.421875 1.304688
-0.459375 2.345313 1.308594
-0.502344 2.284375 1.311719
-0.563281 2.241406 1.314844
3 0 1 2
3 2 3 0
3 4 5 6
3 6 7 4
3 7 6 8
3 8 9 7
3 10 9 8
3 8 11 10
3 10 11 12
3 12 13 10
3 13 12 14
3 14 15 13
3 9 10 13
3 13 7 9
3 7 13 15
3 15 4 7
3 16 17 18
3 18 19 20
3 16 18 20
3 21 16 20
3 21 22 16
3 23 21 20
3 24 25 26
3 27 26 25
3 25 28 27
3 29 27 28
3 28 30 29
3 31 29 30
3 30 32 31
3 33 31 32
3 32 34 33
3 35 33 34
3 34 24 35
3 26 35 24
3 36 37 38
3 38 39 36
3 40 39 38
3 12 11 8
3 8 6 12
3 14 12 6
3 6 5 14
3 25 24 41
3 41 42 25
3 28 25 42
3 42 43 28
3 30 28 43
3 43 44 30
3 32 30 44
3 44 45 32
3 34 32 45
3 45 46 34
3 34 46 41
3 41 24 34
3 47 48 49
3 49 50 47
3 47 0 3
3 3 48 47
3 51 52 53
3 53 54 51
3 55 56 57
3 57 58 55
3 59 60 61
3 61 62 59
3 63 59 62
3 59 63 64
3 38 64 40
3 38 59 64
3 38 65 59
3 65 60 59
3 38 37 65
3 66 67 68
3 68 69 66
3 70 69 68
3 68 71 70
3 70 71 72
3 72 73 70
3 74 75 76
3 76 77 74
3 78 79 80
3 80 81 78
3 82 83 84
3 84 85 82
3 86 87 88
3 88 89 86
3 90 83 82
3 82 91 90
3 92 90 91
3 91 93 92
3 94 92 93
3 93 95 94
3 96 94 95
3 95 97 96
3 98 96 97
3 97 99 98
3 86 98 99
3 99 87 86
3 1 0 47
3 47 50 1
3 53 52 100
3 100 101 53
3 62 102 64
3 64 63 62
3 102 39 40
3 40 64 102
3 65 37 36
3 36 103 65
3 60 65 103
3 103 61 60
3 104 51 54
3 54 105 104
3 67 66 106
3 106 107 67
3 108 109 110
3 108 111 109
3 112 113 114
3 115 112 114
3 108 115 114
3 108 116 115
3 108 110 116
3 110 117 116
3 117 118 116
3 116 119 120
3 116 120 121
3 116 121 115
3 121 122 115
3 120 123 121
3 79 124 80
3 125 80 124
3 126 125 124
3 126 127 125
3 127 128 125
3 125 128 129
3 128 130 129
3 130 131 129
3 131 132 129
3 129 132 77
3 132 74 77
3 133 134 135
3 135 136 133
3 55 133 136
3 136 56 55
3 135 134 58
3 58 57 135
3 137 138 139
3 139 140 137
3 138 141 142
3 142 139 138
3 139 142 143
3 143 140 139
3 143 144 137
3 137 140 143
3 144 141 138
3 138 137 144
3 55 58 134
3 134 133 55
3 49 1 50
3 49 2 1
3 145 76 75
3 146 145 75
3 147 145 146
3 147 148 145
3 148 149 145
3 149 150 145
3 149 151 150
3 151 152 150
3 152 153 150
3 150 153 81
3 153 78 81
3 154 72 71
3 71 68 154
3 107 154 68
3 68 67 107
3 16 22 155
3 155 156 16
3 17 16 156
3 156 157 17
3 18 17 157
3 157 158 18
3 19 18 158
3 158 159 19
3 20 19 159
3 159 160 20
3 23 20 160
3 160 161 23
3 21 23 161
3 161 162 21
3 22 21 162
3 162 155 22
3 163 164 165
3 165 166 163
3 167 163 166
3 166 168 167
3 169 167 168
3 168 170 169
3 171 169 170
3 170 172 171
3 173 171 172
3 172 174 173
3 173 174 165
3 165 164 173
3 106 66 69
3 69 175 106
3 175 69 70
3 70 73 175
3 82 85 176
3 176 91 82
3 93 91 176
3 176 177 93
3 93 177 178
3 178 95 93
3 95 178 179
3 179 97 95
3 97 179 180
3 180 99 97
3 87 99 180
3 180 88 87
3 181 182 35
3 35 26 181
3 183 181 26
3 26 27 183
3 184 183 27
3 27 29 184
3 185 184 29
3 29 31 185
3 186 185 31
3 31 33 186
3 182 186 33
3 33 35 182
3 187 84 83
3 83 90 187
3 187 90 92
3 92 188 187
3 189 188 92
3 92 94 189
3 190 189 94
3 94 96 190
3 191 190 96
3 96 98 191
3 191 98 86
3 86 89 191
3 52 51 104
3 104 100 52
3 100 104 192
3 192 193 100
3 193 192 194
3 194 195 193
3 195 194 196
3 196 197 195
3 197 196 198
3 198 199 197
3 200 199 198
3 198 201 200
3 202 200 201
3 201 203 202
3 204 202 203
3 203 205 204
3 204 205 105
3 105 101 204
3 101 105 54
3 54 53 101
3 206 207 208
3 208 209 206
3 209 208 210
3 210 211 209
3 211 210 212
3 212 213 211
3 213 212 100
3 100 214 213
3 214 100 193
3 193 215 214
3 215 193 195
3 195 216 215
3 216 195 197
3 197 217 216
3 217 197 199
3 199 218 217
3 219 218 199
3 199 200 219
3 220 219 200
3 200 202 220
3 221 220 202
3 202 204 221
3 222 221 204
3 204 101 222
3 223 222 101
3 101 224 223
3 225 223 224
3 224 226 225
3 227 225 226
3 226 228 227
3 206 227 228
3 228 207 206
3 227 206 229
3 229 230 227
3 225 227 230
3 230 231 225
3 223 225 231
3 231 232 223
3 222 223 232
3 232 233 222
3 221 222 233
3 233 234 221
3 220 221 234
3 234 235 220
3 219 220 235
3 235 236 219
3 218 219 236
3 236 237 218
3 218 237 238
3 238 217 218
3 217 238 239
3 239 216 217
3 216 239 240
3 240 215 216
3 215 240 241
3 241 214 215
3 214 241 242
3 242 213 214
3 213 242 243
3 243 211 213
3 211 243 244
3 244 209 211
3 209 244 229
3 229 206 209
3 245 118 117
3 117 246 245
3 246 117 110
3 110 247 246
3 247 110 109
3 109 248 247
3 248 109 111
3 111 249 248
3 249 111 108
3 108 250 249
3 251 250 108
3 108 114 251
3 252 251 114
3 114 113 252
3 253 252 113
3 113 112 253
3 254 253 112
3 112 115 254
3 255 254 115
3 115 122 255
3 256 255 122
3 122 121 256
3 256 121 123
3 123 257 256
3 257 123 120
3 120 258 257
3 258 120 119
3 119 259 258
3 259 119 116
3 116 260 259
3 260 116 118
3 118 245 260
3 187 188 148
3 149 148 188
3 188 189 149
3 149 189 190
3 190 151 149
3 151 190 191
3 191 152 151
3 152 191 89
3 89 153 152
3 78 153 89
3 79 78 89
3 89 88 79
3 88 124 79
3 126 124 88
3 88 180 126
3 127 126 180
3 180 179 127
3 128 127 179
3 179 178 128
3 128 178 177
3 177 130 128
3 130 177 176
3 176 131 130
3 131 176 85
3 85 132 131
3 74 132 85
3 75 74 85
3 85 84 75
3 84 146 75
3 147 146 84
3 84 187 147
3 148 147 187
3 230 229 245
3 245 246 230
3 231 230 246
3 246 247 231
3 232 231 247
3 247 248 232
3 232 248 249
3 249 233 232
3 233 249 250
3 250 234 233
3 234 250 251
3 251 235 234
3 235 251 252
3 252 236 235
3 236 252 253
3 253 237 236
3 237 253 254
3 254 238 237
3 238 254 255
3 255 239 238
3 239 255 256
3 256 240 239
3 240 256 257
3 257 241 240
3 241 257 258
3 258 242 241
3 243 242 258
3 258 259 243
3 244 243 259
3 259 260 244
3 229 244 260
3 260 245 229
