ply
format ascii 1.0
comment Exported by RapidForm
element vertex 258
property float x
property float y
property float z
element face 500
property list uchar int vertex_index
end_header
0.119998 0.592393 0.500000
0.119998 0.592393 -0.500000
0.161581 0.588022 0.500000
0.161581 0.588022 -0.500000
0.201345 0.575102 -0.500000
0.201345 0.575102 0.500000
0.237555 0.554196 -0.500000
0.237555 0.554196 0.500000
0.268627 0.526219 -0.500000
0.268627 0.526219 0.500000
0.293203 0.492393 -0.500000
0.293203 0.492393 0.500000
0.310210 0.454196 -0.500000
0.310210 0.454196 0.500000
0.318903 0.413298 -0.500000
0.318903 0.413298 0.500000
0.318903 0.371487 -0.500000
0.318903 0.371487 0.500000
0.310210 0.330589 -0.500000
0.310210 0.330589 0.500000
0.293203 0.292393 -0.500000
0.293203 0.292393 0.500000
0.268627 0.258566 -0.500000
0.268627 0.258566 0.500000
0.237555 0.230589 -0.500000
0.237555 0.230589 0.500000
0.201345 0.209683 -0.500000
0.201345 0.209683 0.500000
0.161581 0.196763 -0.500000
0.161581 0.196763 0.500000
0.119998 0.192393 -0.500000
0.119998 0.192393 0.500000
-0.300342 0.192393 -0.500000
-0.300342 0.192393 0.500000
-0.300342 0.592393 -0.500000
-0.300342 0.592393 0.500000
0.119998 0.892393 -0.500000
-0.580002 0.892393 -0.500000
0.119998 0.892393 0.500000
-0.580002 0.892393 0.500000
0.119998 -0.107607 0.500000
0.119998 -0.107607 -0.500000
0.188082 -0.102950 0.500000
0.188082 -0.102950 -0.500000
0.254897 -0.089066 0.500000
0.254897 -0.089066 -0.500000
0.319199 -0.066213 0.500000
0.319199 -0.066213 -0.500000
0.379790 -0.034817 0.500000
0.379790 -0.034817 -0.500000
0.435542 0.004537 0.500000
0.435542 0.004537 -0.500000
0.485416 0.051116 0.500000
0.485416 0.051116 -0.500000
0.528483 0.104052 0.500000
0.528483 0.104052 -0.500000
0.563941 0.162360 0.500000
0.563941 0.162360 -0.500000
0.591129 0.224953 0.500000
0.591129 0.224953 -0.500000
0.609540 0.290665 0.500000
0.609540 0.290665 -0.500000
0.618833 0.358271 0.500000
0.618833 0.358271 -0.500000
0.618833 0.426514 0.500000
0.618833 0.426514 -0.500000
0.609540 0.494121 0.500000
0.609540 0.494121 -0.500000
0.591129 0.559832 0.500000
0.591129 0.559832 -0.500000
0.563941 0.622425 0.500000
0.563941 0.622425 -0.500000
0.528483 0.680733 0.500000
0.528483 0.680733 -0.500000
0.485416 0.733669 0.500000
0.485416 0.733669 -0.500000
0.435542 0.780248 0.500000
0.435542 0.780248 -0.500000
0.379790 0.819602 0.500000
0.379790 0.819602 -0.500000
0.319199 0.850998 0.500000
0.319199 0.850998 -0.500000
0.254897 0.873851 0.500000
0.254897 0.873851 -0.500000
0.188082 0.887736 0.500000
0.188082 0.887736 -0.500000
-0.069611 -0.107607 -0.500000
-0.069611 -0.107607 0.500000
0.579993 -0.683043 -0.500000
0.579993 -0.683043 0.500000
0.381069 -0.907607 -0.500000
0.381069 -0.907607 0.500000
-0.280002 -0.322015 -0.500000
-0.280002 -0.322015 0.500000
-0.280002 -0.907607 -0.500000
-0.280002 -0.907607 0.500000
-0.580002 -0.907607 -0.500000
-0.580002 -0.907607 0.500000
2.679993 -0.592390 -0.500000
2.679993 0.907610 -0.500000
2.679993 -0.592390 0.500000
2.679993 0.907610 0.500000
2.379993 0.907610 -0.500000
2.379993 0.907610 0.500000
2.379993 -0.892390 -0.500000
2.379993 -0.892390 0.500000
3.579993 -0.892390 0.500000
3.579993 -0.592390 0.500000
3.579993 -0.592390 -0.500000
3.579993 -0.892390 -0.500000
1.179993 0.157610 -0.500000
1.179993 0.607610 -0.500000
1.179993 0.157610 0.500000
1.179993 0.607610 0.500000
1.179993 -0.142390 0.500000
1.179993 -0.592390 0.500000
1.179993 -0.142390 -0.500000
1.179993 -0.592390 -0.500000
0.879993 0.907610 -0.500000
0.879993 -0.892390 -0.500000
0.879993 0.907610 0.500000
0.879993 -0.892390 0.500000
2.079993 -0.892390 0.500000
2.079993 -0.592390 0.500000
2.079993 -0.142390 0.500000
2.079993 0.157610 0.500000
2.079993 0.907610 0.500000
2.079993 0.607610 0.500000
2.079993 0.607610 -0.500000
2.079993 0.907610 -0.500000
2.079993 -0.592390 -0.500000
2.079993 -0.892390 -0.500000
2.079993 -0.142390 -0.500000
2.079993 0.157610 -0.500000
-2.680002 -0.107607 -0.500000
-2.680002 -0.907607 -0.500000
-2.680002 -0.107607 0.500000
-2.680002 -0.907607 0.500000
-2.380002 -0.907607 -0.500000
-2.380002 0.892393 -0.500000
-2.380002 -0.907607 0.500000
-2.380002 0.892393 0.500000
-2.680002 0.192393 0.500000
-2.680002 0.892393 0.500000
-2.680002 0.192393 -0.500000
-2.680002 0.892393 -0.500000
-3.280002 -0.107607 0.500000
-3.280002 -0.907607 0.500000
-3.280002 -0.107607 -0.500000
-3.280002 -0.907607 -0.500000
-3.280002 0.192393 -0.500000
-3.280002 0.892393 -0.500000
-3.280002 0.192393 0.500000
-3.280002 0.892393 0.500000
-3.580002 0.892393 -0.500000
-3.580002 0.892393 0.500000
-3.580002 -0.907607 -0.500000
-3.580002 -0.907607 0.500000
-1.180002 -0.307607 0.500000
-1.180002 -0.307607 -0.500000
-1.184559 -0.359702 0.500000
-1.184559 -0.359702 -0.500000
-1.198094 -0.410213 0.500000
-1.198094 -0.410213 -0.500000
-1.220194 -0.457607 0.500000
-1.220194 -0.457607 -0.500000
-1.250188 -0.500444 0.500000
-1.250188 -0.500444 -0.500000
-1.287165 -0.537421 0.500000
-1.287165 -0.537421 -0.500000
-1.330002 -0.567415 0.500000
-1.330002 -0.567415 -0.500000
-1.377396 -0.589515 0.500000
-1.377396 -0.589515 -0.500000
-1.427907 -0.603050 0.500000
-1.427907 -0.603050 -0.500000
-1.480002 -0.607607 0.500000
-1.480002 -0.607607 -0.500000
-1.532096 -0.603050 0.500000
-1.532096 -0.603050 -0.500000
-1.582608 -0.589515 0.500000
-1.582608 -0.589515 -0.500000
-1.630002 -0.567415 0.500000
-1.630002 -0.567415 -0.500000
-1.672838 -0.537421 0.500000
-1.672838 -0.537421 -0.500000
-1.709815 -0.500444 0.500000
-1.709815 -0.500444 -0.500000
-1.739809 -0.457607 0.500000
-1.739809 -0.457607 -0.500000
-1.761910 -0.410213 0.500000
-1.761910 -0.410213 -0.500000
-1.775444 -0.359702 0.500000
-1.775444 -0.359702 -0.500000
-1.780002 -0.307607 0.500000
-1.780002 -0.307607 -0.500000
-0.880002 -0.307607 0.500000
-0.884376 -0.379929 0.500000
-0.880002 -0.307607 -0.500000
-0.884376 -0.379929 -0.500000
-0.897437 -0.451197 0.500000
-0.897437 -0.451197 -0.500000
-0.918992 -0.520370 0.500000
-0.918992 -0.520370 -0.500000
-0.948728 -0.586441 0.500000
-0.948728 -0.586441 -0.500000
-0.986211 -0.648446 0.500000
-0.986211 -0.648446 -0.500000
-1.030895 -0.705481 0.500000
-1.030895 -0.705481 -0.500000
-1.082128 -0.756714 0.500000
-1.082128 -0.756714 -0.500000
-1.139163 -0.801398 0.500000
-1.139163 -0.801398 -0.500000
-1.201168 -0.838881 0.500000
-1.201168 -0.838881 -0.500000
-1.267239 -0.868617 0.500000
-1.267239 -0.868617 -0.500000
-1.336412 -0.890173 0.500000
-1.336412 -0.890173 -0.500000
-1.407680 -0.903233 0.500000
-1.407680 -0.903233 -0.500000
-1.480002 -0.907607 0.500000
-1.480002 -0.907607 -0.500000
-1.552324 -0.903233 0.500000
-1.552324 -0.903233 -0.500000
-1.623591 -0.890173 0.500000
-1.623591 -0.890173 -0.500000
-1.692765 -0.868617 0.500000
-1.692765 -0.868617 -0.500000
-1.758836 -0.838881 0.500000
-1.758836 -0.838881 -0.500000
-1.820841 -0.801398 -0.500000
-1.820841 -0.801398 0.500000
-1.877875 -0.756714 0.500000
-1.877875 -0.756714 -0.500000
-1.929108 -0.705481 0.500000
-1.929108 -0.705481 -0.500000
-1.973792 -0.648446 0.500000
-1.973792 -0.648446 -0.500000
-2.011275 -0.586441 0.500000
-2.011275 -0.586441 -0.500000
-2.041011 -0.520370 0.500000
-2.041011 -0.520370 -0.500000
-2.062567 -0.451197 0.500000
-2.062567 -0.451197 -0.500000
-2.075627 -0.379929 0.500000
-2.075627 -0.379929 -0.500000
-2.080002 -0.307607 0.500000
-2.080002 -0.307607 -0.500000
-1.780002 0.892393 0.500000
-2.080002 0.892393 0.500000
-1.180002 0.892393 0.500000
-0.880002 0.892393 0.500000
-1.780002 0.892393 -0.500000
-2.080002 0.892393 -0.500000
-1.180002 0.892393 -0.500000
-0.880002 0.892393 -0.500000
3 0 1 2
3 2 1 3
3 4 2 3
3 4 5 2
3 4 6 5
3 5 6 7
3 7 6 8
3 9 8 10
3 11 10 12
3 13 12 14
3 15 14 16
3 17 16 18
3 19 18 20
3 21 20 22
3 23 22 24
3 25 24 26
3 27 26 28
3 29 28 30
3 31 29 30
3 7 8 9
3 9 10 11
3 11 12 13
3 13 14 15
3 15 16 17
3 17 18 19
3 19 20 21
3 21 22 23
3 23 24 25
3 25 26 27
3 27 28 29
3 30 32 31
3 31 32 33
3 32 34 33
3 33 34 35
3 34 1 35
3 35 1 0
3 36 37 38
3 38 37 39
3 40 41 42
3 42 41 43
3 44 43 45
3 46 45 47
3 48 47 49
3 50 49 51
3 52 51 53
3 54 53 55
3 56 55 57
3 58 57 59
3 60 59 61
3 62 61 63
3 64 63 65
3 66 65 67
3 68 67 69
3 70 69 71
3 72 71 73
3 74 73 75
3 76 75 77
3 78 77 79
3 80 79 81
3 82 81 83
3 84 83 85
3 38 85 36
3 38 84 85
3 42 43 44
3 44 45 46
3 46 47 48
3 48 49 50
3 50 51 52
3 52 53 54
3 54 55 56
3 56 57 58
3 58 59 60
3 60 61 62
3 62 63 64
3 64 65 66
3 66 67 68
3 68 69 70
3 70 71 72
3 72 73 74
3 74 75 76
3 76 77 78
3 78 79 80
3 80 81 82
3 82 83 84
3 86 41 87
3 87 41 40
3 88 86 89
3 89 86 87
3 90 88 91
3 91 88 89
3 92 90 93
3 93 90 91
3 94 92 95
3 95 92 93
3 96 94 97
3 97 94 95
3 37 96 39
3 39 96 97
3 35 0 38
3 39 35 38
3 39 33 35
3 39 97 33
3 33 97 93
3 87 93 91
3 89 87 91
3 5 84 2
3 5 82 84
3 5 7 82
3 82 7 80
3 80 7 9
3 78 9 76
3 78 80 9
3 9 11 76
3 76 11 74
3 74 11 13
3 72 13 70
3 72 74 13
3 13 15 70
3 70 15 68
3 68 15 66
3 66 15 64
3 64 15 62
3 62 15 17
3 60 17 58
3 60 62 17
3 58 17 56
3 56 17 19
3 54 19 52
3 54 56 19
3 19 21 52
3 52 21 50
3 50 21 23
3 48 23 46
3 48 50 23
3 23 25 46
3 46 25 44
3 44 25 27
3 42 27 29
3 40 29 31
3 87 31 33
3 93 87 33
3 44 27 42
3 42 29 40
3 40 31 87
3 97 95 93
3 84 38 2
3 2 38 0
3 28 41 30
3 28 43 41
3 28 26 43
3 43 26 45
3 45 26 24
3 47 24 22
3 49 22 51
3 49 47 22
3 45 24 47
3 22 20 51
3 51 20 53
3 53 20 18
3 55 18 57
3 55 53 18
3 18 16 57
3 57 16 59
3 59 16 61
3 61 16 63
3 63 16 14
3 65 14 67
3 65 63 14
3 12 71 14
3 12 73 71
3 12 75 73
3 12 10 75
3 75 10 77
3 77 10 8
3 79 8 81
3 79 77 8
3 8 6 81
3 81 6 83
3 83 6 4
3 85 4 3
3 36 3 1
3 34 36 1
3 34 37 36
3 34 32 37
3 37 32 96
3 96 32 92
3 94 96 92
3 83 4 85
3 85 3 36
3 92 32 86
3 90 86 88
3 90 92 86
3 71 69 14
3 14 69 67
3 41 86 30
3 30 86 32
3 98 99 100
3 100 99 101
3 99 102 101
3 101 102 103
3 102 104 103
3 103 104 105
3 101 103 100
3 100 103 105
3 106 100 105
3 106 107 100
3 108 98 107
3 107 98 100
3 109 108 106
3 106 108 107
3 104 109 105
3 105 109 106
3 108 109 98
3 98 109 104
3 102 98 104
3 102 99 98
3 110 111 112
3 112 111 113
3 114 115 116
3 116 115 117
3 118 119 120
3 120 119 121
3 121 112 120
3 121 114 112
3 121 115 114
3 121 122 115
3 115 122 123
3 114 124 112
3 112 124 125
3 112 113 120
3 120 113 126
3 126 113 127
3 111 128 113
3 113 128 127
3 129 118 126
3 126 118 120
3 128 129 127
3 127 129 126
3 130 117 123
3 123 117 115
3 131 130 122
3 122 130 123
3 119 131 121
3 121 131 122
3 116 132 114
3 114 132 124
3 133 110 125
3 125 110 112
3 132 133 124
3 124 133 125
3 132 116 133
3 133 116 110
3 110 116 119
3 118 110 119
3 118 111 110
3 118 129 111
3 111 129 128
3 116 117 119
3 119 117 131
3 131 117 130
3 134 135 136
3 136 135 137
3 138 139 140
3 140 139 141
3 135 138 137
3 137 138 140
3 142 143 144
3 144 143 145
3 139 145 141
3 141 145 143
3 146 147 148
3 148 147 149
3 150 151 152
3 152 151 153
3 151 154 153
3 153 154 155
3 156 149 157
3 157 149 147
3 154 156 155
3 155 156 157
3 157 146 155
3 157 147 146
3 155 146 152
3 153 155 152
3 137 140 136
3 136 140 141
3 142 141 143
3 142 136 141
3 142 152 136
3 136 152 146
3 144 150 142
3 142 150 152
3 148 134 146
3 146 134 136
3 144 148 150
3 144 134 148
3 144 139 134
3 144 145 139
3 139 138 134
3 134 138 135
3 149 156 148
3 148 156 154
3 150 154 151
3 150 148 154
3 158 159 160
3 160 159 161
3 162 161 163
3 164 163 165
3 166 165 167
3 168 167 169
3 170 169 171
3 172 171 173
3 174 173 175
3 176 175 177
3 178 177 179
3 180 179 181
3 182 181 183
3 184 183 185
3 186 185 187
3 188 187 189
3 190 189 191
3 192 191 193
3 194 193 195
3 194 192 193
3 160 161 162
3 162 163 164
3 164 165 166
3 166 167 168
3 168 169 170
3 170 171 172
3 172 173 174
3 174 175 176
3 176 177 178
3 178 179 180
3 180 181 182
3 182 183 184
3 184 185 186
3 186 187 188
3 188 189 190
3 190 191 192
3 196 197 198
3 198 197 199
3 199 197 200
3 201 200 202
3 203 202 204
3 205 204 206
3 207 206 208
3 209 208 210
3 211 210 212
3 213 212 214
3 215 214 216
3 217 216 218
3 219 218 220
3 221 220 222
3 223 222 224
3 225 224 226
3 227 226 228
3 229 228 230
3 231 230 232
3 231 229 230
3 199 200 201
3 201 202 203
3 203 204 205
3 205 206 207
3 207 208 209
3 209 210 211
3 211 212 213
3 213 214 215
3 215 216 217
3 217 218 219
3 219 220 221
3 221 222 223
3 223 224 225
3 225 226 227
3 227 228 229
3 230 233 232
3 232 233 234
3 235 234 236
3 237 236 238
3 239 238 240
3 241 240 242
3 243 242 244
3 245 244 246
3 247 246 248
3 249 247 248
3 232 234 235
3 235 236 237
3 237 238 239
3 239 240 241
3 241 242 243
3 243 244 245
3 245 246 247
3 160 200 158
3 160 202 200
3 160 204 202
3 160 162 204
3 204 162 206
3 206 162 208
3 208 162 164
3 210 164 166
3 212 166 168
3 214 168 170
3 216 170 172
3 218 172 220
3 218 216 172
3 208 164 210
3 210 166 212
3 212 168 214
3 214 170 216
3 172 174 220
3 220 174 222
3 222 174 176
3 178 222 176
3 178 224 222
3 178 180 224
3 224 180 226
3 226 180 228
3 228 180 182
3 230 182 184
3 233 184 186
3 234 186 188
3 236 188 190
3 238 190 240
3 238 236 190
3 228 182 230
3 230 184 233
3 233 186 234
3 234 188 236
3 190 192 240
3 240 192 242
3 242 192 244
3 244 192 194
3 246 194 248
3 246 244 194
3 250 251 194
3 194 251 248
3 200 197 158
3 158 197 196
3 252 196 253
3 252 158 196
3 254 255 250
3 250 255 251
3 250 194 254
3 254 194 195
3 255 249 251
3 251 249 248
3 256 159 252
3 252 159 158
3 256 257 159
3 159 257 198
3 199 159 198
3 199 201 159
3 159 201 161
3 161 201 203
3 205 161 203
3 205 163 161
3 205 207 163
3 163 207 209
3 165 209 211
3 167 211 213
3 169 213 215
3 171 215 217
3 173 217 219
3 221 173 219
3 221 175 173
3 221 223 175
3 175 223 177
3 177 223 179
3 179 223 225
3 181 225 227
3 229 181 227
3 229 183 181
3 229 231 183
3 183 231 185
3 185 231 232
3 187 232 235
3 189 235 237
3 191 237 239
3 241 191 239
3 241 193 191
3 241 243 193
3 193 243 245
3 195 245 247
3 249 195 247
3 249 254 195
3 249 255 254
3 163 209 165
3 165 211 167
3 167 213 169
3 169 215 171
3 171 217 173
3 179 225 181
3 185 232 187
3 187 235 189
3 189 237 191
3 193 245 195
3 257 256 253
3 253 256 252
3 198 257 196
3 196 257 253
